<svg width="1440" height="1024" viewBox="0 0 1440 1024" fill="none" xmlns="http://www.w3.org/2000/svg">
<path d="M568 412C556.972 412 548 420.972 548 432V440.286C548 442.334 549.794 444 552 444H554C554.53 444 555.039 443.789 555.414 443.414C555.789 443.039 556 442.53 556 442V431.714C556 431.184 555.789 430.675 555.414 430.3C555.039 429.925 554.53 429.714 554 429.714H552.184C553.296 421.974 559.956 416 568 416C576.044 416 582.704 421.974 583.816 429.714H582C581.47 429.714 580.961 429.925 580.586 430.3C580.211 430.675 580 431.184 580 431.714V444C580 446.206 578.206 448 576 448H572V446H564V452H576C580.412 452 584 448.412 584 444C586.206 444 588 442.334 588 440.286V432C588 420.972 579.028 412 568 412Z" fill="black"/>
<path d="M75 434.114V421H71V425H47V421H43V434.114C40.62 435.5 39 438.05 39 441V449C39 449.53 39.2107 450.039 39.5858 450.414C39.9609 450.789 40.4696 451 41 451H43V459H47V451H71V459H75V451H77C77.5304 451 78.0391 450.789 78.4142 450.414C78.7893 450.039 79 449.53 79 449V441C79 438.05 77.378 435.5 75 434.114ZM71 429V433H61V429H71ZM47 429H57V433H47V429ZM75 447H43V441C43 438.794 44.794 437 47 437H71C73.206 437 75 438.794 75 441V447Z" fill="black"/>
<path d="M292 424V446C292 450.402 295.588 452 298 452H328V448H298.024C297.1 447.976 296 447.612 296 446C296 444.388 297.1 444.024 298.024 444H328V416C328 413.794 326.206 412 324 412H298C295.588 412 292 413.598 292 418V424ZM298 416H324V440H296V418C296 416.388 297.1 416.024 298 416Z" fill="black"/>
<path d="M309.994 436L316.694 429.422C317.107 429.025 317.436 428.548 317.66 428.021C317.885 427.493 318 426.926 318 426.353C318 425.78 317.885 425.213 317.66 424.685C317.436 424.158 317.107 423.681 316.694 423.284C315.861 422.462 314.738 422.001 313.568 422.001C312.398 422.001 311.275 422.462 310.442 423.284L309.994 423.72L309.546 423.282C308.714 422.46 307.591 421.999 306.421 421.999C305.251 421.999 304.128 422.46 303.296 423.282C302.883 423.679 302.554 424.156 302.33 424.683C302.105 425.211 301.99 425.778 301.99 426.351C301.99 426.924 302.105 427.491 302.33 428.019C302.554 428.546 302.883 429.023 303.296 429.42L309.994 436Z" fill="black"/>
<path d="M680 298H684V304H680V298ZM688 298H692V304H688V298ZM696 298H700V304H696V298ZM708 312H704V308H676V330C676 333.308 678.692 336 682 336H698C701.308 336 704 333.308 704 330H708C710.206 330 712 328.206 712 326V316C712 313.794 710.206 312 708 312ZM700 330C700 330.53 699.789 331.039 699.414 331.414C699.039 331.789 698.53 332 698 332H682C681.47 332 680.961 331.789 680.586 331.414C680.211 331.039 680 330.53 680 330V312H700V330ZM704 326V316H708L708.004 326H704Z" fill="black"/>
<path d="M1318 192H1290V186C1290 183.794 1291.79 182 1294 182C1296.21 182 1298 183.794 1298 186H1302C1302 181.588 1298.41 178 1294 178C1289.59 178 1286 181.588 1286 186V192H1282C1281.47 192 1280.96 192.211 1280.59 192.586C1280.21 192.961 1280 193.47 1280 194V198C1280 203.212 1283.35 207.646 1288 209.3V216H1292V210H1308V216H1312V209.3C1316.65 207.646 1320 203.212 1320 198V194C1320 193.47 1319.79 192.961 1319.41 192.586C1319.04 192.211 1318.53 192 1318 192ZM1316 198C1316 202.412 1312.41 206 1308 206H1292C1287.59 206 1284 202.412 1284 198V196H1316V198Z" fill="black"/>
<path d="M82.196 678.128C81.9553 677.946 81.6768 677.821 81.3812 677.762C81.0856 677.702 80.7803 677.71 80.488 677.784C80.0033 677.919 79.5032 677.992 79 678C75.692 678 73 675.308 72.994 672.126C73.004 672.058 73.026 671.854 73.028 671.786C73.0411 671.473 72.9804 671.162 72.851 670.877C72.7215 670.592 72.5269 670.342 72.2828 670.146C72.0387 669.95 71.7519 669.814 71.4457 669.75C71.1395 669.685 70.8224 669.693 70.52 669.774C70.0253 669.915 69.5144 669.991 69 670C65.692 670 63 667.308 63 664C63 663.566 63.062 663.112 63.198 662.568C63.275 662.257 63.2764 661.933 63.202 661.622C63.1277 661.311 62.9798 661.022 62.7707 660.78C62.5617 660.538 62.2976 660.349 62.0006 660.23C61.7036 660.111 61.3825 660.065 61.064 660.096C56.111 660.558 51.5101 662.857 48.1669 666.54C44.8238 670.224 42.9806 675.025 43 680C43 691.028 51.972 700 63 700C74.028 700 83 691.028 83 680C83 679.902 82.994 679.806 82.986 679.68C82.9793 679.379 82.9048 679.083 82.768 678.814C82.6313 678.545 82.4358 678.311 82.196 678.128ZM63 696C54.178 696 47 688.822 47 680C46.9858 676.447 48.1604 672.99 50.3371 670.182C52.5138 667.373 55.5675 665.373 59.012 664.5C59.1432 667.061 60.2524 669.475 62.1108 671.243C63.9693 673.01 66.4352 673.997 69 674L69.202 673.998C69.661 676.234 70.8704 678.247 72.6299 679.702C74.3893 681.157 76.5931 681.967 78.876 681.998C77.888 689.882 71.146 696 63 696Z" fill="black"/>
<path d="M64 682C65.6569 682 67 680.657 67 679C67 677.343 65.6569 676 64 676C62.3431 676 61 677.343 61 679C61 680.657 62.3431 682 64 682Z" fill="black"/>
<path d="M56 676C57.6569 676 59 674.657 59 673C59 671.343 57.6569 670 56 670C54.3431 670 53 671.343 53 673C53 674.657 54.3431 676 56 676Z" fill="black"/>
<path d="M54 684C55.6569 684 57 682.657 57 681C57 679.343 55.6569 678 54 678C52.3431 678 51 679.343 51 681C51 682.657 52.3431 684 54 684Z" fill="black"/>
<path d="M70 690C71.6569 690 73 688.657 73 687C73 685.343 71.6569 684 70 684C68.3431 684 67 685.343 67 687C67 688.657 68.3431 690 70 690Z" fill="black"/>
<path d="M60 692C61.6569 692 63 690.657 63 689C63 687.343 61.6569 686 60 686C58.3431 686 57 687.343 57 689C57 690.657 58.3431 692 60 692Z" fill="black"/>
<path d="M927.858 573.142C931.648 576.932 936.668 579.018 942 579.018C947.332 579.018 952.354 576.932 956.142 573.142C963.94 565.344 963.94 552.656 956.142 544.856C952.354 541.068 947.33 538.98 942 538.98C936.67 538.98 931.646 541.068 927.858 544.858C920.06 552.654 920.06 565.344 927.858 573.142ZM942.618 543.012C945.958 543.132 949.175 544.307 951.806 546.368L942 556.172L939.08 553.252C941.402 550.294 942.664 546.636 942.618 543.012ZM936.22 550.392L932.196 546.368C934.085 544.887 936.286 543.855 938.632 543.348C938.602 545.82 937.742 548.302 936.22 550.392ZM933.372 553.2C931.335 554.592 928.921 555.329 926.454 555.314C926.974 553.089 927.968 551.003 929.37 549.198L933.372 553.2ZM926.022 559.292C926.176 559.296 926.33 559.32 926.484 559.32C930.003 559.331 933.429 558.189 936.238 556.068L939.172 559L929.37 568.802C927.255 566.078 926.08 562.741 926.022 559.292ZM950.61 564.782C952.694 563.266 955.17 562.406 957.626 562.37C957.126 564.713 956.102 566.912 954.632 568.804L950.61 564.782ZM951.804 571.632C950.001 573.042 947.913 574.045 945.686 574.572C945.663 572.096 946.401 569.672 947.8 567.628L951.804 571.632ZM941.716 575.004C938.259 574.949 934.915 573.765 932.194 571.632L942 561.828L944.926 564.754C942.72 567.642 941.608 571.286 941.716 575.004ZM957.964 558.384C954.35 558.348 950.698 559.604 947.748 561.92L944.828 559L954.63 549.198C956.676 551.835 957.842 555.048 957.964 558.384Z" fill="black"/>
<path d="M580 678H574V674C574 671.794 572.206 670 570 670H558C555.794 670 554 671.794 554 674V678H548C545.794 678 544 679.794 544 682V704C544 706.206 545.794 708 548 708H580C582.206 708 584 706.206 584 704V682C584 679.794 582.206 678 580 678ZM570 674V678H558V674H570ZM548 682H580V690H574V686H570V690H558V686H554V690H548V682ZM548 704V694H554V698H558V694H570V698H574V694H580.002V704H548Z" fill="black"/>
<path d="M203 316C203 314.082 201.64 312.478 199.838 312.092C200.558 310.89 201 309.5 201 308C201 303.588 197.412 300 193 300C189.966 300 187.358 301.714 186 304.208C184.642 301.714 182.034 300 179 300C174.588 300 171 303.588 171 308C171 309.804 171.624 311.454 172.634 312.792C172.129 313.161 171.718 313.644 171.434 314.201C171.151 314.758 171.002 315.375 171 316V332C171 334.206 172.794 336 175 336H199C201.206 336 203 334.206 203 332V326.724L211 330.724V316.724L203 320.724V316ZM193 304C195.206 304 197 305.794 197 308C197 310.206 195.206 312 193 312C190.794 312 189 310.206 189 308C189 305.794 190.794 304 193 304ZM179 304C181.206 304 183 305.794 183 308C183 310.206 181.206 312 179 312C176.794 312 175 310.206 175 308C175 305.794 176.794 304 179 304ZM175 332V316H199L199.004 332H175Z" fill="black"/>
<path d="M458 312H455.16L447.736 299.008L444.264 300.992L450.554 312H429.446L435.738 300.992L432.264 299.008L424.84 312H422C421.693 312 421.389 312.071 421.114 312.208C420.838 312.344 420.598 312.542 420.411 312.787C420.225 313.031 420.097 313.315 420.038 313.616C419.978 313.918 419.99 314.229 420.07 314.526L425.668 335.054C425.901 335.9 426.404 336.646 427.101 337.178C427.799 337.71 428.651 337.999 429.528 338H450.474C452.27 338 453.858 336.79 454.334 335.05L459.932 314.524C460.013 314.227 460.025 313.916 459.966 313.614C459.907 313.311 459.779 313.027 459.592 312.783C459.405 312.538 459.164 312.341 458.888 312.205C458.612 312.069 458.308 311.999 458 312ZM450.472 334H429.528L424.62 316H455.38L450.472 334Z" fill="black"/>
<path d="M434 320H438V330H434V320ZM442 320H446V330H442V320Z" fill="black"/>
<path d="M943 303.19C940.821 301.186 937.968 300.074 935.008 300.074C933.441 300.076 931.89 300.387 930.444 300.991C928.998 301.594 927.685 302.477 926.582 303.59C921.876 308.316 921.878 315.708 926.586 320.414L941.25 335.078C941.59 335.676 942.246 336.062 943 336.062C943.31 336.059 943.614 335.983 943.889 335.841C944.164 335.699 944.402 335.495 944.584 335.244L959.414 320.414C964.122 315.706 964.122 308.316 959.41 303.582C958.307 302.471 956.996 301.59 955.551 300.988C954.106 300.386 952.557 300.075 950.992 300.074C948.032 300.074 945.179 301.187 943 303.19ZM956.582 306.41C959.708 309.552 959.71 314.46 956.586 317.586L943 331.172L929.414 317.586C926.29 314.46 926.292 309.552 929.41 306.418C930.93 304.906 932.918 304.074 935.008 304.074C937.098 304.074 939.078 304.906 940.586 306.414L941.586 307.414C941.772 307.6 941.992 307.747 942.235 307.848C942.477 307.949 942.737 308 943 308C943.263 308 943.523 307.949 943.765 307.848C944.008 307.747 944.228 307.6 944.414 307.414L945.414 306.414C948.438 303.396 953.562 303.404 956.582 306.41Z" fill="black"/>
<path d="M1286 710H1314C1315.06 710 1316.08 709.579 1316.83 708.828C1317.58 708.078 1318 707.061 1318 706V688C1318 687.737 1317.95 687.476 1317.85 687.232C1317.75 686.989 1317.61 686.767 1317.42 686.58L1301.42 670.58C1301.05 670.207 1300.54 669.998 1300.01 669.998C1299.48 669.998 1298.97 670.207 1298.6 670.58L1282.6 686.58C1282.41 686.765 1282.26 686.986 1282.16 687.23C1282.05 687.474 1282 687.735 1282 688V706C1282 707.061 1282.42 708.078 1283.17 708.828C1283.92 709.579 1284.94 710 1286 710ZM1296 706V696H1304V706H1296ZM1286 688.82L1300 674.82L1314 688.82V706H1308V696C1308 694.939 1307.58 693.922 1306.83 693.172C1306.08 692.421 1305.06 692 1304 692H1296C1294.94 692 1293.92 692.421 1293.17 693.172C1292.42 693.922 1292 694.939 1292 696V706H1286V688.82Z" fill="black"/>
<path d="M1043 708H1079C1079.35 708 1079.7 707.907 1080 707.731C1080.31 707.555 1080.56 707.301 1080.73 706.996C1080.91 706.691 1081 706.345 1081 705.993C1081 705.641 1080.91 705.296 1080.73 704.992L1066.73 680.992C1066.01 679.762 1063.99 679.766 1063.27 680.992L1056.73 692.2L1054.69 688.936C1054.51 688.649 1054.26 688.413 1053.97 688.249C1053.67 688.086 1053.34 688 1053 688C1052.66 688 1052.33 688.087 1052.03 688.251C1051.73 688.416 1051.48 688.653 1051.3 688.94L1041.3 704.94C1041.11 705.243 1041.01 705.591 1041 705.948C1040.99 706.304 1041.08 706.657 1041.25 706.97C1041.42 707.282 1041.68 707.542 1041.98 707.723C1042.29 707.904 1042.64 708 1043 708ZM1065 685.97L1075.52 704H1064.11L1059.14 696.026L1065 685.97ZM1053 693.77L1059.39 704H1046.61L1053 693.77ZM1049 684C1052.31 684 1055 681.308 1055 678C1055 674.692 1052.31 672 1049 672C1045.69 672 1043 674.692 1043 678C1043 681.308 1045.69 684 1049 684ZM1049 676C1049.53 676 1050.04 676.211 1050.41 676.586C1050.79 676.961 1051 677.47 1051 678C1051 678.53 1050.79 679.039 1050.41 679.414C1050.04 679.789 1049.53 680 1049 680C1048.47 680 1047.96 679.789 1047.59 679.414C1047.21 679.039 1047 678.53 1047 678C1047 677.47 1047.21 676.961 1047.59 676.586C1047.96 676.211 1048.47 676 1049 676Z" fill="black"/>
<path d="M836 425.3C835.823 422.771 834.691 420.404 832.835 418.677C830.978 416.951 828.535 415.994 826 416H806C803.436 415.997 800.968 416.978 799.107 418.743C797.246 420.507 796.133 422.919 796 425.48C795.989 425.653 795.989 425.827 796 426V441C795.995 441.921 796.172 442.833 796.522 443.685C796.872 444.537 797.387 445.311 798.038 445.962C798.689 446.613 799.463 447.128 800.315 447.478C801.167 447.828 802.079 448.005 803 448C805.86 448 807.64 445.88 809.38 443.82C810.02 443.08 810.68 442.3 811.38 441.62C812.309 440.94 813.352 440.432 814.46 440.12C815.483 440 816.517 440 817.54 440.12C818.648 440.432 819.691 440.94 820.62 441.62C821.32 442.3 821.98 443.08 822.62 443.82C824.36 445.82 826.14 448 829 448C829.921 448.005 830.833 447.828 831.685 447.478C832.537 447.128 833.311 446.613 833.962 445.962C834.613 445.311 835.128 444.537 835.478 443.685C835.828 442.833 836.005 441.921 836 441V426C836.011 425.827 836.011 425.653 836 425.48V425.3ZM832 441C832 441.796 831.684 442.559 831.121 443.121C830.559 443.684 829.796 444 829 444C828 444 827 442.72 825.68 441.24C825 440.46 824.24 439.54 823.38 438.72C821.932 437.553 820.256 436.702 818.46 436.22C816.833 435.927 815.167 435.927 813.54 436.22C811.744 436.702 810.068 437.553 808.62 438.72C807.76 439.54 807 440.46 806.32 441.24C805.08 442.72 804 444 803 444C802.204 444 801.441 443.684 800.879 443.121C800.316 442.559 800 441.796 800 441V426C800.01 425.9 800.01 425.8 800 425.7C800.077 424.161 800.743 422.711 801.86 421.65C802.977 420.589 804.459 419.998 806 420H826C827.499 419.993 828.946 420.548 830.056 421.555C831.167 422.562 831.86 423.948 832 425.44V425.68C831.99 425.786 831.99 425.894 832 426V441Z" fill="#010101"/>
<path d="M824 434C825.105 434 826 433.105 826 432C826 430.895 825.105 430 824 430C822.895 430 822 430.895 822 432C822 433.105 822.895 434 824 434Z" fill="#010101"/>
<path d="M828 430C829.105 430 830 429.105 830 428C830 426.895 829.105 426 828 426C826.895 426 826 426.895 826 428C826 429.105 826.895 430 828 430Z" fill="#010101"/>
<path d="M824 426C825.105 426 826 425.105 826 424C826 422.895 825.105 422 824 422C822.895 422 822 422.895 822 424C822 425.105 822.895 426 824 426Z" fill="#010101"/>
<path d="M820 430C821.105 430 822 429.105 822 428C822 426.895 821.105 426 820 426C818.895 426 818 426.895 818 428C818 429.105 818.895 430 820 430Z" fill="#010101"/>
<path d="M808 432C810.209 432 812 430.209 812 428C812 425.791 810.209 424 808 424C805.791 424 804 425.791 804 428C804 430.209 805.791 432 808 432Z" fill="#010101"/>
<path d="M1084 443.444C1085.19 442.75 1086 441.474 1086 440V418C1086 415.794 1084.21 414 1082 414H1054C1051.79 414 1050 415.794 1050 418V440C1050 441.472 1050.81 442.75 1052 443.444V444H1048V448H1088V444H1084V443.444ZM1054 440V418H1082L1082 440H1054Z" fill="black"/>
<path d="M193.8 542.192C190.502 541.741 187.144 542.113 184.025 543.275C180.906 544.438 178.124 546.354 175.926 548.854C174.045 551.02 172.649 553.564 171.833 556.315C171.016 559.065 170.798 561.958 171.192 564.8C172.252 572.588 178.108 579.214 185.762 581.292C187.468 581.759 189.229 581.997 190.998 582L191.282 581.998C192.293 581.985 193.285 581.717 194.164 581.218C195.044 580.72 195.783 580.007 196.314 579.146C196.846 578.29 197.154 577.313 197.207 576.306C197.261 575.3 197.059 574.296 196.62 573.388L196.222 572.556C195.916 571.958 195.772 571.29 195.805 570.619C195.838 569.948 196.047 569.297 196.41 568.732C196.93 567.888 197.744 567.266 198.696 566.987C199.647 566.708 200.669 566.792 201.562 567.222L202.386 567.616C203.21 568.012 204.086 568.214 204.988 568.214C206.567 568.206 208.079 567.581 209.203 566.472C210.326 565.363 210.971 563.858 211 562.28C211.025 560.416 210.787 558.558 210.294 556.76C208.214 549.108 201.588 543.252 193.8 542.192ZM204.116 564.01L203.292 563.616C199.636 561.86 195.152 563.22 193.022 566.604C191.546 568.956 191.396 571.756 192.614 574.288L193.012 575.12C193.161 575.422 193.23 575.758 193.212 576.094C193.194 576.431 193.09 576.757 192.91 577.042C192.734 577.333 192.487 577.574 192.191 577.741C191.896 577.909 191.562 577.998 191.222 578H190.998C189.583 577.996 188.174 577.806 186.808 577.434C180.682 575.772 176.002 570.476 175.156 564.262C174.514 559.552 175.86 555.016 178.942 551.484C180.695 549.472 182.924 547.931 185.425 547.001C187.926 546.07 190.62 545.78 193.262 546.156C199.476 547.002 204.772 551.684 206.434 557.808C206.83 559.268 207.02 560.756 206.998 562.222C206.974 563.836 205.308 564.588 204.116 564.01Z" fill="black"/>
<path d="M182 570C183.657 570 185 568.657 185 567C185 565.343 183.657 564 182 564C180.343 564 179 565.343 179 567C179 568.657 180.343 570 182 570Z" fill="black"/>
<path d="M182 562C183.657 562 185 560.657 185 559C185 557.343 183.657 556 182 556C180.343 556 179 557.343 179 559C179 560.657 180.343 562 182 562Z" fill="black"/>
<path d="M188 556C189.657 556 191 554.657 191 553C191 551.343 189.657 550 188 550C186.343 550 185 551.343 185 553C185 554.657 186.343 556 188 556Z" fill="black"/>
<path d="M196 556C197.657 556 199 554.657 199 553C199 551.343 197.657 550 196 550C194.343 550 193 551.343 193 553C193 554.657 194.343 556 196 556Z" fill="black"/>
<path d="M838 675H835.582C835.875 674.028 836.016 673.016 836 672C836 668.14 832.86 665 829 665C825.756 665 823.59 667.964 822.192 671.17C820.814 668.14 818.538 665 815 665C811.14 665 808 668.14 808 672C808 673.192 808.158 674.178 808.418 675H806C803.794 675 802 676.794 802 679V683C802 685.206 803.794 687 806 687V701C806 703.206 807.794 705 810 705H834C836.206 705 838 703.206 838 701V687C840.206 687 842 685.206 842 683V679C842 676.794 840.206 675 838 675ZM829 669C830.654 669 832 670.346 832 672C832 675 830.748 675 830 675H825.044C826.066 671.848 827.55 669 829 669ZM812 672C812 670.346 813.346 669 815 669C816.776 669 818.428 672.05 819.396 675H814C813.252 675 812 675 812 672ZM806 679H820V683H806V679ZM810 701V687H820V701H810ZM834 701H824V687H834V701ZM824 683V679.17L824.034 679H838L838.002 683H824Z" fill="#040404"/>
<path d="M707 555V549C707 546.794 705.206 545 703 545H697C697 541.692 694.308 539 691 539C687.692 539 685 541.692 685 545H679C676.794 545 675 546.794 675 549V556.762L676.318 557.24C677.922 557.82 679 559.332 679 561C679 562.668 677.922 564.18 676.318 564.76L675 565.238V573C675 575.206 676.794 577 679 577H686.762L687.24 575.682C687.82 574.078 689.332 573 691 573C692.668 573 694.18 574.078 694.76 575.682L695.238 577H703C705.206 577 707 575.206 707 573V567C710.308 567 713 564.308 713 561C713 557.692 710.308 555 707 555ZM707 563H703L702.994 573H697.904C696.482 570.56 693.86 569 691 569C688.14 569 685.518 570.56 684.096 573H679V567.904C681.44 566.482 683 563.86 683 561C683 558.14 681.44 555.518 679 554.096V549H689V545C689 544.47 689.211 543.961 689.586 543.586C689.961 543.211 690.47 543 691 543C691.53 543 692.039 543.211 692.414 543.586C692.789 543.961 693 544.47 693 545V549H703V559H707C707.53 559 708.039 559.211 708.414 559.586C708.789 559.961 709 560.47 709 561C709 561.53 708.789 562.039 708.414 562.414C708.039 562.789 707.53 563 707 563Z" fill="#070707"/>
<path d="M319.14 712C319.671 712.003 320.198 711.9 320.689 711.698C321.18 711.495 321.626 711.197 322 710.82L327.42 705.4C327.793 705.025 328.002 704.518 328.002 703.99C328.002 703.462 327.793 702.955 327.42 702.58L319.42 694.58C319.045 694.208 318.538 693.998 318.01 693.998C317.482 693.998 316.975 694.208 316.6 694.58L313.4 697.76C311.185 697.169 309.133 696.082 307.4 694.58C305.902 692.845 304.815 690.794 304.22 688.58L307.4 685.38C307.773 685.005 307.982 684.498 307.982 683.97C307.982 683.442 307.773 682.935 307.4 682.56L299.4 674.56C299.025 674.188 298.518 673.978 297.99 673.978C297.462 673.978 296.955 674.188 296.58 674.56L291.18 680C290.803 680.375 290.505 680.82 290.302 681.311C290.1 681.802 289.997 682.329 290 682.86C290.181 690.545 293.252 697.879 298.6 703.4C304.121 708.748 311.455 711.819 319.14 712ZM298 678.82L303.18 684L300.6 686.58C300.356 686.809 300.173 687.096 300.068 687.413C299.963 687.731 299.94 688.071 300 688.4C300.748 691.741 302.33 694.837 304.6 697.4C307.161 699.673 310.258 701.256 313.6 702C313.924 702.068 314.26 702.054 314.578 701.96C314.896 701.865 315.185 701.694 315.42 701.46L318 698.82L323.18 704L319.18 708C312.547 707.829 306.219 705.182 301.44 700.58C296.826 695.799 294.171 689.462 294 682.82L298 678.82ZM326 690H330C330.052 687.622 329.622 685.258 328.735 683.051C327.849 680.844 326.525 678.839 324.843 677.157C323.162 675.475 321.156 674.151 318.949 673.265C316.742 672.378 314.378 671.948 312 672V676C313.856 675.936 315.705 676.254 317.433 676.935C319.16 677.616 320.729 678.645 322.042 679.958C323.355 681.271 324.384 682.84 325.065 684.567C325.746 686.295 326.064 688.144 326 690Z" fill="black"/>
<path d="M312 684C316.2 684 318 685.8 318 690H322C322 683.56 318.44 680 312 680V684Z" fill="black"/>
<path d="M582 175H554C551.794 175 550 176.794 550 179V207C550 209.206 551.794 211 554 211H582C584.206 211 586 209.206 586 207V179C586 176.794 584.206 175 582 175ZM562 191V179H574V191H562ZM574 195V207H562V195H574ZM554 179H558V183H554V179ZM554 187H558V191H554V187ZM554 195H558V199H554V195ZM554 203H558V207H554V203ZM582.004 207H578V203H582.004V207ZM582.002 199H578V195H582.002V199ZM582.002 191H578V187H582.002V191ZM578 183V179H582V183H578Z" fill="black"/>
<path d="M57 187.828V197H61V187.828C61 186.776 60.572 185.744 59.828 185L55.828 181L61 175.828L65 179.828C65.744 180.572 66.776 181 67.828 181H75V177H67.828L60.414 169.586C60.2284 169.4 60.008 169.253 59.7654 169.152C59.5228 169.051 59.2627 169 59 169C58.7373 169 58.4772 169.051 58.2346 169.152C57.992 169.253 57.7716 169.4 57.586 169.586L51 176.172C50.244 176.928 49.828 177.932 49.828 179C49.828 180.068 50.244 181.072 51 181.828L57 187.828Z" fill="black"/>
<path d="M67 171C69.2091 171 71 169.209 71 167C71 164.791 69.2091 163 67 163C64.7909 163 63 164.791 63 167C63 169.209 64.7909 171 67 171Z" fill="black"/>
<path d="M71 185C66.588 185 63 188.588 63 193C63 197.412 66.588 201 71 201C75.412 201 79 197.412 79 193C79 188.588 75.412 185 71 185ZM71 197C68.794 197 67 195.206 67 193C67 190.794 68.794 189 71 189C73.206 189 75 190.794 75 193C75 195.206 73.206 197 71 197ZM47 201C51.412 201 55 197.412 55 193C55 188.588 51.412 185 47 185C42.588 185 39 188.588 39 193C39 197.412 42.588 201 47 201ZM47 189C49.206 189 51 190.794 51 193C51 195.206 49.206 197 47 197C44.794 197 43 195.206 43 193C43 190.794 44.794 189 47 189Z" fill="black"/>
<path d="M806.75 199.562L809.25 196.438L801.202 190L809.25 183.562L806.75 180.438L796.75 188.438C796.516 188.625 796.327 188.863 796.197 189.133C796.067 189.404 795.999 189.7 795.999 190C795.999 190.3 796.067 190.596 796.197 190.867C796.327 191.137 796.516 191.375 796.75 191.562L806.75 199.562ZM825.25 180.438L822.75 183.562L830.798 190L822.75 196.438L825.25 199.562L835.25 191.562C835.484 191.375 835.673 191.137 835.803 190.867C835.933 190.596 836.001 190.3 836.001 190C836.001 189.7 835.933 189.404 835.803 189.133C835.673 188.863 835.484 188.625 835.25 188.438L825.25 180.438ZM821.952 172.432L813.952 208.432L810.046 207.564L818.046 171.564L821.952 172.432Z" fill="black"/>
<path d="M1293 444.32V447C1293 447.53 1293.21 448.039 1293.59 448.414C1293.96 448.789 1294.47 449 1295 449H1311C1311.53 449 1312.04 448.789 1312.41 448.414C1312.79 448.039 1313 447.53 1313 447V444.32C1316.04 442.565 1318.57 440.04 1320.32 437C1322.08 433.959 1323 430.511 1323 427C1323 426.47 1322.79 425.961 1322.41 425.586C1322.04 425.211 1321.53 425 1321 425C1320.96 423.775 1320.61 422.581 1319.98 421.53C1319.35 420.48 1318.46 419.609 1317.4 419C1317.15 417.258 1316.27 415.666 1314.94 414.516C1313.6 413.367 1311.9 412.736 1310.14 412.74C1309.46 412.739 1308.79 412.826 1308.14 413C1306.76 411.686 1304.93 410.952 1303.03 410.952C1301.13 410.952 1299.3 411.686 1297.92 413C1297.27 412.826 1296.6 412.739 1295.92 412.74C1294.15 412.726 1292.44 413.352 1291.1 414.503C1289.76 415.654 1288.88 417.251 1288.62 419C1287.55 419.606 1286.66 420.476 1286.03 421.527C1285.39 422.578 1285.04 423.774 1285 425C1284.47 425 1283.96 425.211 1283.59 425.586C1283.21 425.961 1283 426.47 1283 427C1283 430.511 1283.92 433.959 1285.68 437C1287.43 440.04 1289.96 442.565 1293 444.32ZM1291.22 422.32L1292.88 421.8L1292.56 420C1292.57 419.569 1292.66 419.144 1292.82 418.748C1292.99 418.352 1293.24 417.993 1293.55 417.692C1293.86 417.391 1294.22 417.154 1294.62 416.994C1295.02 416.834 1295.45 416.755 1295.88 416.76C1296.46 416.757 1297.03 416.894 1297.54 417.16L1299.16 418.06L1300.16 416.52C1300.47 416.054 1300.9 415.672 1301.39 415.408C1301.89 415.144 1302.44 415.005 1303 415.005C1303.56 415.005 1304.11 415.144 1304.61 415.408C1305.1 415.672 1305.53 416.054 1305.84 416.52L1306.84 418.06L1308.46 417.16C1308.97 416.894 1309.54 416.757 1310.12 416.76C1310.99 416.749 1311.82 417.078 1312.44 417.677C1313.07 418.275 1313.43 419.095 1313.46 419.96L1313.14 421.66L1314.78 422.22C1315.38 422.409 1315.92 422.775 1316.32 423.271C1316.71 423.766 1316.95 424.368 1317 425H1289C1289.05 424.368 1289.29 423.766 1289.68 423.271C1290.08 422.775 1290.62 422.409 1291.22 422.22V422.32ZM1318.88 429C1318.55 431.618 1317.57 434.114 1316.04 436.263C1314.51 438.413 1312.47 440.15 1310.1 441.32C1309.77 441.488 1309.49 441.745 1309.29 442.063C1309.1 442.381 1309 442.747 1309 443.12V445H1297V443.12C1297 442.747 1296.9 442.381 1296.71 442.063C1296.51 441.745 1296.23 441.488 1295.9 441.32C1293.53 440.15 1291.49 438.413 1289.96 436.263C1288.43 434.114 1287.45 431.618 1287.12 429H1318.88Z" fill="black"/>
<path d="M1080 175H1048C1045.79 175 1044 176.794 1044 179V201C1044 203.206 1045.79 205 1048 205H1056L1052.4 209.8L1055.6 212.2L1061 205H1067L1072.4 212.2L1075.6 209.8L1072 205H1080C1082.21 205 1084 203.206 1084 201V179C1084 176.794 1082.21 175 1080 175ZM1048 201V179H1080L1080 201H1048Z" fill="black"/>
<path d="M1052 193H1060V197H1052V193Z" fill="black"/>
<path d="M1168.12 564.36C1168.26 564.865 1168.59 565.296 1169.04 565.56L1172.86 567.78V572.18C1172.86 572.71 1173.07 573.219 1173.45 573.594C1173.82 573.969 1174.33 574.18 1174.86 574.18H1179.26L1181.48 578C1181.65 578.302 1181.91 578.554 1182.21 578.729C1182.51 578.904 1182.85 578.998 1183.2 579C1183.56 579 1183.91 578.903 1184.22 578.72L1188.02 576.52L1191.84 578.72C1192.07 578.853 1192.32 578.94 1192.58 578.976C1192.84 579.012 1193.1 578.996 1193.36 578.929C1193.61 578.862 1193.85 578.745 1194.06 578.586C1194.27 578.427 1194.45 578.227 1194.58 578L1196.78 574.18H1201.18C1201.71 574.18 1202.22 573.969 1202.59 573.594C1202.97 573.219 1203.18 572.71 1203.18 572.18V567.78L1207 565.56C1207.46 565.296 1207.79 564.862 1207.93 564.352C1208.07 563.843 1208 563.299 1207.74 562.84L1205.52 559L1207.74 555.18C1208 554.721 1208.07 554.177 1207.93 553.667C1207.79 553.158 1207.46 552.724 1207 552.46L1203.18 550.26V545.86C1203.18 545.33 1202.97 544.821 1202.59 544.446C1202.22 544.071 1201.71 543.86 1201.18 543.86H1196.78L1194.58 540.04C1194.31 539.584 1193.87 539.253 1193.36 539.12C1193.11 539.052 1192.84 539.034 1192.58 539.069C1192.32 539.103 1192.07 539.188 1191.84 539.32L1188 541.52L1184.2 539.32C1183.74 539.058 1183.2 538.986 1182.69 539.121C1182.18 539.256 1181.75 539.586 1181.48 540.04L1179.26 543.86H1174.86C1174.33 543.86 1173.82 544.071 1173.45 544.446C1173.07 544.821 1172.86 545.33 1172.86 545.86V550.26L1169.06 552.46C1168.83 552.591 1168.63 552.765 1168.47 552.974C1168.31 553.183 1168.19 553.421 1168.12 553.676C1168.05 553.931 1168.03 554.196 1168.07 554.458C1168.1 554.72 1168.19 554.972 1168.32 555.2L1170.52 559L1168.32 562.82C1168.19 563.05 1168.1 563.305 1168.06 563.57C1168.03 563.834 1168.05 564.103 1168.12 564.36ZM1174.56 558.02L1172.78 555L1175.88 553.2C1176.18 553.023 1176.43 552.771 1176.6 552.47C1176.77 552.168 1176.86 551.827 1176.86 551.48V547.86H1180.42C1180.77 547.861 1181.12 547.77 1181.42 547.594C1181.73 547.418 1181.98 547.165 1182.16 546.86L1184 543.78L1187.08 545.56C1187.38 545.736 1187.73 545.828 1188.08 545.828C1188.43 545.828 1188.78 545.736 1189.08 545.56L1192.18 543.78L1194 546.86C1194.18 547.165 1194.43 547.418 1194.74 547.594C1195.04 547.77 1195.39 547.861 1195.74 547.86H1199.28V551.42C1199.28 551.769 1199.38 552.111 1199.55 552.413C1199.73 552.715 1199.98 552.965 1200.28 553.14L1203.36 554.94L1201.58 558.02C1201.4 558.324 1201.31 558.669 1201.31 559.02C1201.31 559.371 1201.4 559.716 1201.58 560.02L1203.36 563.1L1200.28 564.9C1199.98 565.074 1199.73 565.325 1199.55 565.627C1199.38 565.929 1199.28 566.271 1199.28 566.62V570.18H1195.62C1195.27 570.182 1194.93 570.275 1194.63 570.451C1194.33 570.626 1194.07 570.878 1193.9 571.18L1192.12 574.26L1189.02 572.48C1188.72 572.304 1188.37 572.212 1188.02 572.212C1187.67 572.212 1187.32 572.304 1187.02 572.48L1184 574.26L1182.22 571.18C1182.04 570.875 1181.79 570.622 1181.48 570.446C1181.18 570.27 1180.83 570.179 1180.48 570.18H1176.86V566.62C1176.84 566.29 1176.74 565.969 1176.57 565.687C1176.4 565.404 1176.16 565.168 1175.88 565L1172.78 563.2L1174.56 560.12C1174.75 559.804 1174.86 559.441 1174.86 559.07C1174.86 558.699 1174.75 558.336 1174.56 558.02Z" fill="black"/>
<path d="M315 168C303.972 168 295 176.972 295 188C295 199.028 303.972 208 315 208C326.028 208 335 199.028 335 188C335 176.972 326.028 168 315 168ZM330.862 186H325.334C325.087 181.622 323.863 177.356 321.75 173.514C324.198 174.658 326.318 176.403 327.911 178.586C329.504 180.769 330.519 183.319 330.862 186ZM316.06 172.054C318.13 174.782 320.914 179.614 321.314 186H309.06C309.338 180.808 311.048 175.944 313.962 172.052C314.306 172.032 314.65 172 315 172C315.358 172 315.708 172.032 316.06 172.054ZM308.376 173.454C306.408 177.236 305.272 181.524 305.06 186H299.138C299.484 183.296 300.513 180.724 302.13 178.529C303.746 176.333 305.896 174.587 308.376 173.454ZM299.138 190H305.086C305.358 194.758 306.416 198.956 308.198 202.46C305.762 201.312 303.655 199.568 302.072 197.391C300.488 195.213 299.479 192.671 299.138 190ZM313.9 203.946C311.098 200.55 309.444 195.792 309.082 190H321.308C320.892 195.546 319.074 200.392 316.102 203.944C315.738 203.968 315.374 204 315 204C314.628 204 314.266 203.968 313.9 203.946ZM321.922 202.402C323.832 198.814 324.998 194.6 325.304 190H330.86C330.522 192.649 329.528 195.171 327.967 197.337C326.406 199.503 324.328 201.244 321.922 202.402Z" fill="black"/>
<path d="M458.006 551.008C460.217 551.008 462.01 549.215 462.01 547.004C462.01 544.793 460.217 543 458.006 543C455.795 543 454.002 544.793 454.002 547.004C454.002 549.215 455.795 551.008 458.006 551.008Z" fill="black"/>
<path d="M457.75 561.438C456.616 562.344 455.794 563 453.994 563C452.196 563 451.418 562.378 450.242 561.438C448.882 560.352 447.192 559 443.988 559C440.786 559 439.098 560.352 437.74 561.438C436.564 562.378 435.79 563 433.99 563C432.194 563 431.418 562.378 430.244 561.44C428.886 560.352 427.2 559 424 559V563C425.794 563 426.57 563.622 427.744 564.56C429.102 565.648 430.79 567 433.99 567C437.19 567 438.882 565.648 440.24 564.56C441.414 563.62 442.192 563 443.988 563C445.788 563 446.61 563.656 447.744 564.562C449.102 565.648 450.792 567 453.994 567C457.198 567 458.888 565.648 460.248 564.562C461.424 563.622 462.202 563 464 563V559C460.798 559 459.108 560.352 457.75 561.438ZM453.994 573C452.196 573 451.418 572.378 450.242 571.438C448.882 570.352 447.192 569 443.988 569C440.786 569 439.098 570.352 437.74 571.438C436.564 572.378 435.79 573 433.99 573C432.194 573 431.418 572.378 430.244 571.44C428.886 570.352 427.2 569 424 569V573C425.794 573 426.57 573.622 427.744 574.56C429.102 575.648 430.79 577 433.99 577C437.19 577 438.882 575.648 440.24 574.56C441.414 573.62 442.192 573 443.988 573C445.788 573 446.61 573.656 447.744 574.562C449.102 575.648 450.792 577 453.994 577C457.198 577 458.888 575.648 460.248 574.562C461.424 573.622 462.202 573 464 573V569C460.798 569 459.108 570.352 457.75 571.438C456.616 572.344 455.794 573 453.994 573ZM442 545.838L446.208 550.046L442.094 555.186C442.666 555.074 443.286 555 443.988 555C447.192 555 448.882 556.352 450.242 557.438C451.418 558.378 452.196 559 453.994 559C455.794 559 456.616 558.344 457.75 557.438C458.014 557.228 458.298 557.004 458.596 556.786L454.404 552.606L454.414 552.596L443.414 541.596C443.228 541.41 443.008 541.263 442.765 541.162C442.523 541.061 442.263 541.01 442 541.01C441.737 541.01 441.477 541.061 441.235 541.162C440.992 541.263 440.772 541.41 440.586 541.596L432.586 549.596L435.414 552.424L442 545.838Z" fill="black"/>
<path d="M1406.69 579H1390C1387.24 579 1385 576.758 1385 574C1385 571.242 1387.24 569 1390 569H1404C1407.86 569 1411 565.86 1411 562C1411 558.14 1407.86 555 1404 555H1394.28C1393.54 556.44 1392.63 557.783 1391.57 559H1404C1405.65 559 1407 560.346 1407 562C1407 563.654 1405.65 565 1404 565H1390C1385.04 565 1381 569.038 1381 574C1381 578.962 1385.04 583 1390 583H1409.19C1408.2 581.766 1407.37 580.424 1406.69 579ZM1387 543C1383.69 543 1381 545.692 1381 549C1381 555.376 1387 559 1387 559C1387 559 1393 555.374 1393 549C1393 545.692 1390.31 543 1387 543ZM1387 552C1386.61 552 1386.22 551.922 1385.85 551.771C1385.49 551.62 1385.16 551.399 1384.88 551.12C1384.6 550.842 1384.38 550.511 1384.23 550.147C1384.08 549.782 1384 549.392 1384 548.998C1384 548.604 1384.08 548.214 1384.23 547.85C1384.38 547.486 1384.6 547.155 1384.88 546.876C1385.16 546.598 1385.49 546.377 1385.85 546.226C1386.22 546.075 1386.61 545.998 1387 545.998C1387.8 545.998 1388.56 546.315 1389.12 546.878C1389.69 547.441 1390 548.204 1390 549C1390 549.796 1389.69 550.559 1389.12 551.122C1388.56 551.684 1387.8 552 1387 552Z" fill="black"/>
<path d="M1415 567C1411.69 567 1409 569.692 1409 573C1409 579.376 1415 583 1415 583C1415 583 1421 579.374 1421 573C1421 569.692 1418.31 567 1415 567ZM1415 576C1414.61 576 1414.22 575.922 1413.85 575.771C1413.49 575.62 1413.16 575.399 1412.88 575.12C1412.6 574.842 1412.38 574.511 1412.23 574.147C1412.08 573.782 1412 573.392 1412 572.998C1412 572.604 1412.08 572.214 1412.23 571.85C1412.38 571.486 1412.6 571.155 1412.88 570.876C1413.16 570.598 1413.49 570.377 1413.85 570.226C1414.22 570.075 1414.61 569.998 1415 569.998C1415.8 569.998 1416.56 570.315 1417.12 570.878C1417.69 571.441 1418 572.204 1418 573C1418 573.796 1417.69 574.559 1417.12 575.122C1416.56 575.684 1415.8 576 1415 576Z" fill="black"/>
<path d="M1410 320V302C1410 299.794 1408.21 298 1406 298H1386C1383.79 298 1382 299.794 1382 302V320C1381.47 320 1380.96 320.211 1380.59 320.586C1380.21 320.961 1380 321.47 1380 322V338H1384V328H1408V338H1412V322C1412 321.47 1411.79 320.961 1411.41 320.586C1411.04 320.211 1410.53 320 1410 320ZM1406 302V320H1402V302H1406ZM1398 302V320H1394V302H1398ZM1386 302H1390V320H1386V302Z" fill="black"/>
<path d="M1186 333.266C1187.31 333.269 1188.61 333.012 1189.83 332.509C1191.04 332.006 1192.14 331.268 1193.07 330.336L1207.34 316.07C1209.21 314.192 1210.26 311.649 1210.26 308.998C1210.26 306.346 1209.21 303.803 1207.34 301.926C1205.45 300.04 1202.93 299 1200.26 299C1197.59 299 1195.08 300.04 1193.2 301.928L1178.93 316.196C1177.06 318.074 1176.01 320.617 1176.01 323.268C1176.01 325.919 1177.06 328.462 1178.93 330.34C1179.85 331.271 1180.96 332.008 1182.17 332.511C1183.38 333.013 1184.68 333.27 1186 333.266ZM1196.02 304.756C1196.58 304.198 1197.24 303.755 1197.97 303.453C1198.7 303.152 1199.48 302.998 1200.26 303C1201.87 303 1203.38 303.626 1204.51 304.756C1205.63 305.882 1206.26 307.408 1206.26 308.999C1206.26 310.589 1205.63 312.115 1204.51 313.242L1198.72 319.026L1190.24 310.54L1196.02 304.756ZM1181.76 319.024L1187.41 313.368L1195.9 321.854L1190.24 327.508C1187.98 329.774 1184.02 329.772 1181.76 327.51C1180.63 326.383 1180 324.858 1180 323.267C1180 321.676 1180.63 320.151 1181.76 319.024Z" fill="black"/>
</svg>
