<svg width="1440" height="1024" viewBox="0 0 1440 1024" fill="none" xmlns="http://www.w3.org/2000/svg">
<path d="M1348 71C1336.97 71 1328 79.972 1328 91V99.286C1328 101.334 1329.79 103 1332 103H1334C1334.53 103 1335.04 102.789 1335.41 102.414C1335.79 102.039 1336 101.53 1336 101V90.714C1336 90.1836 1335.79 89.6749 1335.41 89.2998C1335.04 88.9247 1334.53 88.714 1334 88.714H1332.18C1333.3 80.974 1339.96 75 1348 75C1356.04 75 1362.7 80.974 1363.82 88.714H1362C1361.47 88.714 1360.96 88.9247 1360.59 89.2998C1360.21 89.6749 1360 90.1836 1360 90.714V103C1360 105.206 1358.21 107 1356 107H1352V105H1344V111H1356C1360.41 111 1364 107.412 1364 103C1366.21 103 1368 101.334 1368 99.286V91C1368 79.972 1359.03 71 1348 71Z" fill="#323232"/>
<path d="M67 507.114V494H63V498H39V494H35V507.114C32.62 508.5 31 511.05 31 514V522C31 522.53 31.2107 523.039 31.5858 523.414C31.9609 523.789 32.4696 524 33 524H35V532H39V524H63V532H67V524H69C69.5304 524 70.0391 523.789 70.4142 523.414C70.7893 523.039 71 522.53 71 522V514C71 511.05 69.378 508.5 67 507.114ZM63 502V506H53V502H63ZM39 502H49V506H39V502ZM67 520H35V514C35 511.794 36.794 510 39 510H63C65.206 510 67 511.794 67 514V520Z" fill="#363636"/>
<path d="M185 383V405C185 409.402 188.588 411 191 411H221V407H191.024C190.1 406.976 189 406.612 189 405C189 403.388 190.1 403.024 191.024 403H221V375C221 372.794 219.206 371 217 371H191C188.588 371 185 372.598 185 377V383ZM191 375H217V399H189V377C189 375.388 190.1 375.024 191 375Z" fill="#323232"/>
<path d="M202.994 395L209.694 388.422C210.107 388.025 210.436 387.548 210.66 387.021C210.885 386.493 211 385.926 211 385.353C211 384.78 210.885 384.213 210.66 383.685C210.436 383.158 210.107 382.681 209.694 382.284C208.861 381.462 207.738 381.001 206.568 381.001C205.398 381.001 204.275 381.462 203.442 382.284L202.994 382.72L202.546 382.282C201.714 381.46 200.591 380.999 199.421 380.999C198.251 380.999 197.128 381.46 196.296 382.282C195.883 382.679 195.554 383.156 195.33 383.683C195.105 384.211 194.99 384.778 194.99 385.351C194.99 385.924 195.105 386.491 195.33 387.019C195.554 387.546 195.883 388.023 196.296 388.42L202.994 395Z" fill="#323232"/>
<path d="M1248 157H1252V163H1248V157ZM1256 157H1260V163H1256V157ZM1264 157H1268V163H1264V157ZM1276 171H1272V167H1244V189C1244 192.308 1246.69 195 1250 195H1266C1269.31 195 1272 192.308 1272 189H1276C1278.21 189 1280 187.206 1280 185V175C1280 172.794 1278.21 171 1276 171ZM1268 189C1268 189.53 1267.79 190.039 1267.41 190.414C1267.04 190.789 1266.53 191 1266 191H1250C1249.47 191 1248.96 190.789 1248.59 190.414C1248.21 190.039 1248 189.53 1248 189V171H1268V189ZM1272 185V175H1276L1276 185H1272Z" fill="#323232"/>
<path d="M1390 255H1362V249C1362 246.794 1363.79 245 1366 245C1368.21 245 1370 246.794 1370 249H1374C1374 244.588 1370.41 241 1366 241C1361.59 241 1358 244.588 1358 249V255H1354C1353.47 255 1352.96 255.211 1352.59 255.586C1352.21 255.961 1352 256.47 1352 257V261C1352 266.212 1355.35 270.646 1360 272.3V279H1364V273H1380V279H1384V272.3C1388.65 270.646 1392 266.212 1392 261V257C1392 256.47 1391.79 255.961 1391.41 255.586C1391.04 255.211 1390.53 255 1390 255ZM1388 261C1388 265.412 1384.41 269 1380 269H1364C1359.59 269 1356 265.412 1356 261V259H1388V261Z" fill="#323232"/>
<path d="M98.196 678.128C97.9553 677.946 97.6768 677.821 97.3812 677.762C97.0855 677.702 96.7803 677.71 96.488 677.784C96.0033 677.919 95.5032 677.992 95 678C91.692 678 89 675.308 88.994 672.126C89.004 672.058 89.026 671.854 89.028 671.786C89.0411 671.473 88.9804 671.162 88.8509 670.877C88.7215 670.592 88.5268 670.342 88.2827 670.146C88.0386 669.95 87.7519 669.814 87.4457 669.75C87.1395 669.685 86.8224 669.693 86.52 669.774C86.0253 669.915 85.5143 669.991 85 670C81.692 670 79 667.308 79 664C79 663.566 79.062 663.112 79.198 662.568C79.275 662.257 79.2764 661.933 79.202 661.622C79.1277 661.311 78.9798 661.022 78.7707 660.78C78.5616 660.538 78.2976 660.349 78.0006 660.23C77.7036 660.111 77.3824 660.065 77.064 660.096C72.1109 660.558 67.51 662.857 64.1669 666.54C60.8238 670.224 58.9805 675.025 59 680C59 691.028 67.972 700 79 700C90.028 700 99 691.028 99 680C99 679.902 98.994 679.806 98.986 679.68C98.9793 679.379 98.9048 679.083 98.768 678.814C98.6312 678.545 98.4357 678.311 98.196 678.128ZM79 696C70.178 696 63 688.822 63 680C62.9857 676.447 64.1604 672.99 66.3371 670.182C68.5138 667.373 71.5674 665.373 75.012 664.5C75.1432 667.061 76.2524 669.475 78.1108 671.243C79.9692 673.01 82.4352 673.997 85 674L85.202 673.998C85.661 676.234 86.8704 678.247 88.6298 679.702C90.3893 681.157 92.5931 681.967 94.876 681.998C93.888 689.882 87.146 696 79 696Z" fill="#323232"/>
<path d="M80 682C81.6569 682 83 680.657 83 679C83 677.343 81.6569 676 80 676C78.3431 676 77 677.343 77 679C77 680.657 78.3431 682 80 682Z" fill="#323232"/>
<path d="M72 676C73.6569 676 75 674.657 75 673C75 671.343 73.6569 670 72 670C70.3431 670 69 671.343 69 673C69 674.657 70.3431 676 72 676Z" fill="#323232"/>
<path d="M70 684C71.6569 684 73 682.657 73 681C73 679.343 71.6569 678 70 678C68.3431 678 67 679.343 67 681C67 682.657 68.3431 684 70 684Z" fill="#323232"/>
<path d="M86 690C87.6569 690 89 688.657 89 687C89 685.343 87.6569 684 86 684C84.3431 684 83 685.343 83 687C83 688.657 84.3431 690 86 690Z" fill="#323232"/>
<path d="M76 692C77.6569 692 79 690.657 79 689C79 687.343 77.6569 686 76 686C74.3431 686 73 687.343 73 689C73 690.657 74.3431 692 76 692Z" fill="#323232"/>
<path d="M938.858 570.142C942.648 573.932 947.668 576.018 953 576.018C958.332 576.018 963.354 573.932 967.142 570.142C974.94 562.344 974.94 549.656 967.142 541.856C963.354 538.068 958.33 535.98 953 535.98C947.67 535.98 942.646 538.068 938.858 541.858C931.06 549.654 931.06 562.344 938.858 570.142ZM953.618 540.012C956.958 540.132 960.175 541.307 962.806 543.368L953 553.172L950.08 550.252C952.402 547.294 953.664 543.636 953.618 540.012ZM947.22 547.392L943.196 543.368C945.085 541.887 947.286 540.855 949.632 540.348C949.602 542.82 948.742 545.302 947.22 547.392ZM944.372 550.2C942.335 551.592 939.921 552.329 937.454 552.314C937.974 550.089 938.968 548.003 940.37 546.198L944.372 550.2ZM937.022 556.292C937.176 556.296 937.33 556.32 937.484 556.32C941.003 556.331 944.429 555.189 947.238 553.068L950.172 556L940.37 565.802C938.255 563.078 937.08 559.741 937.022 556.292ZM961.61 561.782C963.694 560.266 966.17 559.406 968.626 559.37C968.126 561.713 967.102 563.912 965.632 565.804L961.61 561.782ZM962.804 568.632C961.001 570.042 958.913 571.045 956.686 571.572C956.663 569.096 957.401 566.672 958.8 564.628L962.804 568.632ZM952.716 572.004C949.259 571.949 945.915 570.765 943.194 568.632L953 558.828L955.926 561.754C953.72 564.642 952.608 568.286 952.716 572.004ZM968.964 555.384C965.35 555.348 961.698 556.604 958.748 558.92L955.828 556L965.63 546.198C967.676 548.835 968.842 552.048 968.964 555.384Z" fill="#323232"/>
<path d="M583 455H577V451C577 448.794 575.206 447 573 447H561C558.794 447 557 448.794 557 451V455H551C548.794 455 547 456.794 547 459V481C547 483.206 548.794 485 551 485H583C585.206 485 587 483.206 587 481V459C587 456.794 585.206 455 583 455ZM573 451V455H561V451H573ZM551 459H583V467H577V463H573V467H561V463H557V467H551V459ZM551 481V471H557V475H561V471H573V475H577V471H583.002V481H551Z" fill="#323232"/>
<path d="M59 313C59 311.082 57.64 309.478 55.838 309.092C56.558 307.89 57 306.5 57 305C57 300.588 53.412 297 49 297C45.966 297 43.358 298.714 42 301.208C40.642 298.714 38.034 297 35 297C30.588 297 27 300.588 27 305C27 306.804 27.624 308.454 28.634 309.792C28.1292 310.161 27.7182 310.644 27.4344 311.201C27.1506 311.758 27.0017 312.375 27 313V329C27 331.206 28.794 333 31 333H55C57.206 333 59 331.206 59 329V323.724L67 327.724V313.724L59 317.724V313ZM49 301C51.206 301 53 302.794 53 305C53 307.206 51.206 309 49 309C46.794 309 45 307.206 45 305C45 302.794 46.794 301 49 301ZM35 301C37.206 301 39 302.794 39 305C39 307.206 37.206 309 35 309C32.794 309 31 307.206 31 305C31 302.794 32.794 301 35 301ZM31 329V313H55L55.004 329H31Z" fill="#323232"/>
<path d="M1188 421H1185.16L1177.74 408.008L1174.26 409.992L1180.55 421H1159.45L1165.74 409.992L1162.26 408.008L1154.84 421H1152C1151.69 421 1151.39 421.071 1151.11 421.208C1150.84 421.344 1150.6 421.542 1150.41 421.787C1150.22 422.031 1150.1 422.315 1150.04 422.616C1149.98 422.918 1149.99 423.229 1150.07 423.526L1155.67 444.054C1155.9 444.9 1156.4 445.646 1157.1 446.178C1157.8 446.71 1158.65 446.999 1159.53 447H1180.47C1182.27 447 1183.86 445.79 1184.33 444.05L1189.93 423.524C1190.01 423.227 1190.03 422.916 1189.97 422.614C1189.91 422.311 1189.78 422.027 1189.59 421.783C1189.4 421.538 1189.16 421.341 1188.89 421.205C1188.61 421.069 1188.31 420.999 1188 421ZM1180.47 443H1159.53L1154.62 425H1185.38L1180.47 443Z" fill="#323232"/>
<path d="M1164 429H1168V439H1164V429ZM1172 429H1176V439H1172V429Z" fill="#323232"/>
<path d="M1012 342.19C1009.82 340.186 1006.97 339.074 1004.01 339.074C1002.44 339.076 1000.89 339.387 999.444 339.991C997.998 340.594 996.685 341.477 995.582 342.59C990.876 347.316 990.878 354.708 995.586 359.414L1010.25 374.078C1010.59 374.676 1011.25 375.062 1012 375.062C1012.31 375.059 1012.61 374.983 1012.89 374.841C1013.16 374.699 1013.4 374.495 1013.58 374.244L1028.41 359.414C1033.12 354.706 1033.12 347.316 1028.41 342.582C1027.31 341.471 1026 340.59 1024.55 339.988C1023.11 339.386 1021.56 339.075 1019.99 339.074C1017.03 339.074 1014.18 340.187 1012 342.19ZM1025.58 345.41C1028.71 348.552 1028.71 353.46 1025.59 356.586L1012 370.172L998.414 356.586C995.29 353.46 995.292 348.552 998.41 345.418C999.93 343.906 1001.92 343.074 1004.01 343.074C1006.1 343.074 1008.08 343.906 1009.59 345.414L1010.59 346.414C1010.77 346.6 1010.99 346.747 1011.23 346.848C1011.48 346.949 1011.74 347 1012 347C1012.26 347 1012.52 346.949 1012.77 346.848C1013.01 346.747 1013.23 346.6 1013.41 346.414L1014.41 345.414C1017.44 342.396 1022.56 342.404 1025.58 345.41Z" fill="#323232"/>
<path d="M1160 680H1188C1189.06 680 1190.08 679.579 1190.83 678.828C1191.58 678.078 1192 677.061 1192 676V658C1192 657.737 1191.95 657.476 1191.85 657.232C1191.75 656.989 1191.61 656.767 1191.42 656.58L1175.42 640.58C1175.05 640.207 1174.54 639.998 1174.01 639.998C1173.48 639.998 1172.97 640.207 1172.6 640.58L1156.6 656.58C1156.41 656.765 1156.26 656.986 1156.16 657.23C1156.05 657.474 1156 657.735 1156 658V676C1156 677.061 1156.42 678.078 1157.17 678.828C1157.92 679.579 1158.94 680 1160 680ZM1170 676V666H1178V676H1170ZM1160 658.82L1174 644.82L1188 658.82V676H1182V666C1182 664.939 1181.58 663.922 1180.83 663.172C1180.08 662.421 1179.06 662 1178 662H1170C1168.94 662 1167.92 662.421 1167.17 663.172C1166.42 663.922 1166 664.939 1166 666V676H1160V658.82Z" fill="#323232"/>
<path d="M946 168H982C982.352 168 982.698 167.907 983.002 167.731C983.307 167.555 983.56 167.301 983.735 166.996C983.91 166.691 984.002 166.345 984.001 165.993C983.999 165.641 983.905 165.296 983.728 164.992L969.728 140.992C969.01 139.762 966.99 139.766 966.27 140.992L959.732 152.2L957.692 148.936C957.512 148.649 957.263 148.413 956.967 148.249C956.671 148.086 956.338 148 956 148C955.661 148 955.326 148.087 955.03 148.251C954.733 148.416 954.484 148.653 954.304 148.94L944.304 164.94C944.115 165.243 944.01 165.591 944.001 165.948C943.991 166.304 944.078 166.657 944.251 166.97C944.424 167.282 944.677 167.542 944.985 167.723C945.292 167.904 945.643 168 946 168ZM968 145.97L978.518 164H967.11L962.138 156.026L968 145.97ZM956.002 153.77L962.394 164H949.61L956.002 153.77ZM952 144C955.308 144 958 141.308 958 138C958 134.692 955.308 132 952 132C948.692 132 946 134.692 946 138C946 141.308 948.692 144 952 144ZM952 136C952.53 136 953.039 136.211 953.414 136.586C953.789 136.961 954 137.47 954 138C954 138.53 953.789 139.039 953.414 139.414C953.039 139.789 952.53 140 952 140C951.47 140 950.961 139.789 950.586 139.414C950.211 139.039 950 138.53 950 138C950 137.47 950.211 136.961 950.586 136.586C950.961 136.211 951.47 136 952 136Z" fill="#323232"/>
<path d="M836 406.3C835.823 403.771 834.691 401.404 832.835 399.677C830.978 397.951 828.535 396.994 826 397H806C803.436 396.997 800.968 397.978 799.107 399.743C797.246 401.507 796.133 403.919 796 406.48C795.989 406.653 795.989 406.827 796 407V422C795.995 422.921 796.172 423.833 796.522 424.685C796.872 425.537 797.387 426.311 798.038 426.962C798.689 427.613 799.463 428.128 800.315 428.478C801.167 428.828 802.079 429.005 803 429C805.86 429 807.64 426.88 809.38 424.82C810.02 424.08 810.68 423.3 811.38 422.62C812.309 421.94 813.352 421.432 814.46 421.12C815.483 421 816.517 421 817.54 421.12C818.648 421.432 819.691 421.94 820.62 422.62C821.32 423.3 821.98 424.08 822.62 424.82C824.36 426.82 826.14 429 829 429C829.921 429.005 830.833 428.828 831.685 428.478C832.537 428.128 833.311 427.613 833.962 426.962C834.613 426.311 835.128 425.537 835.478 424.685C835.828 423.833 836.005 422.921 836 422V407C836.011 406.827 836.011 406.653 836 406.48V406.3ZM832 422C832 422.796 831.684 423.559 831.121 424.121C830.559 424.684 829.796 425 829 425C828 425 827 423.72 825.68 422.24C825 421.46 824.24 420.54 823.38 419.72C821.932 418.553 820.256 417.702 818.46 417.22C816.833 416.927 815.167 416.927 813.54 417.22C811.744 417.702 810.068 418.553 808.62 419.72C807.76 420.54 807 421.46 806.32 422.24C805.08 423.72 804 425 803 425C802.204 425 801.441 424.684 800.879 424.121C800.316 423.559 800 422.796 800 422V407C800.01 406.9 800.01 406.8 800 406.7C800.077 405.161 800.743 403.711 801.86 402.65C802.977 401.589 804.459 400.998 806 401H826C827.499 400.993 828.946 401.548 830.056 402.555C831.167 403.562 831.86 404.948 832 406.44V406.68C831.99 406.786 831.99 406.894 832 407V422Z" fill="#323232"/>
<path d="M824 415C825.105 415 826 414.105 826 413C826 411.895 825.105 411 824 411C822.895 411 822 411.895 822 413C822 414.105 822.895 415 824 415Z" fill="#323232"/>
<path d="M828 411C829.105 411 830 410.105 830 409C830 407.895 829.105 407 828 407C826.895 407 826 407.895 826 409C826 410.105 826.895 411 828 411Z" fill="#323232"/>
<path d="M824 407C825.105 407 826 406.105 826 405C826 403.895 825.105 403 824 403C822.895 403 822 403.895 822 405C822 406.105 822.895 407 824 407Z" fill="#323232"/>
<path d="M820 411C821.105 411 822 410.105 822 409C822 407.895 821.105 407 820 407C818.895 407 818 407.895 818 409C818 410.105 818.895 411 820 411Z" fill="#323232"/>
<path d="M808 413C810.209 413 812 411.209 812 409C812 406.791 810.209 405 808 405C805.791 405 804 406.791 804 409C804 411.209 805.791 413 808 413Z" fill="#323232"/>
<path d="M195 821.444C196.19 820.75 197 819.474 197 818V796C197 793.794 195.206 792 193 792H165C162.794 792 161 793.794 161 796V818C161 819.472 161.81 820.75 163 821.444V822H159V826H199V822H195V821.444ZM165 818V796H193L193.004 818H165Z" fill="#323232"/>
<path d="M408.8 764.192C405.502 763.741 402.144 764.113 399.025 765.275C395.906 766.438 393.124 768.354 390.926 770.854C389.045 773.02 387.649 775.564 386.833 778.315C386.016 781.065 385.798 783.958 386.192 786.8C387.252 794.588 393.108 801.214 400.762 803.292C402.468 803.759 404.229 803.997 405.998 804L406.282 803.998C407.293 803.985 408.284 803.717 409.164 803.218C410.044 802.72 410.783 802.007 411.314 801.146C411.846 800.29 412.154 799.313 412.207 798.306C412.261 797.3 412.059 796.296 411.62 795.388L411.222 794.556C410.916 793.958 410.772 793.29 410.805 792.619C410.838 791.948 411.047 791.297 411.41 790.732C411.93 789.888 412.744 789.266 413.696 788.987C414.647 788.708 415.669 788.792 416.562 789.222L417.386 789.616C418.21 790.012 419.086 790.214 419.988 790.214C421.567 790.206 423.079 789.581 424.203 788.472C425.326 787.363 425.971 785.858 426 784.28C426.025 782.416 425.787 780.558 425.294 778.76C423.214 771.108 416.588 765.252 408.8 764.192ZM419.116 786.01L418.292 785.616C414.636 783.86 410.152 785.22 408.022 788.604C406.546 790.956 406.396 793.756 407.614 796.288L408.012 797.12C408.161 797.422 408.23 797.758 408.212 798.094C408.194 798.431 408.09 798.757 407.91 799.042C407.734 799.333 407.487 799.574 407.191 799.741C406.896 799.909 406.562 799.998 406.222 800H405.998C404.583 799.996 403.174 799.806 401.808 799.434C395.682 797.772 391.002 792.476 390.156 786.262C389.514 781.552 390.86 777.016 393.942 773.484C395.695 771.472 397.924 769.931 400.425 769.001C402.926 768.07 405.62 767.78 408.262 768.156C414.476 769.002 419.772 773.684 421.434 779.808C421.83 781.268 422.02 782.756 421.998 784.222C421.974 785.836 420.308 786.588 419.116 786.01Z" fill="black"/>
<path d="M397 792C398.657 792 400 790.657 400 789C400 787.343 398.657 786 397 786C395.343 786 394 787.343 394 789C394 790.657 395.343 792 397 792Z" fill="black"/>
<path d="M397 784C398.657 784 400 782.657 400 781C400 779.343 398.657 778 397 778C395.343 778 394 779.343 394 781C394 782.657 395.343 784 397 784Z" fill="black"/>
<path d="M403 778C404.657 778 406 776.657 406 775C406 773.343 404.657 772 403 772C401.343 772 400 773.343 400 775C400 776.657 401.343 778 403 778Z" fill="black"/>
<path d="M411 778C412.657 778 414 776.657 414 775C414 773.343 412.657 772 411 772C409.343 772 408 773.343 408 775C408 776.657 409.343 778 411 778Z" fill="black"/>
<path d="M834 764H831.582C831.875 763.028 832.016 762.016 832 761C832 757.14 828.86 754 825 754C821.756 754 819.59 756.964 818.192 760.17C816.814 757.14 814.538 754 811 754C807.14 754 804 757.14 804 761C804 762.192 804.158 763.178 804.418 764H802C799.794 764 798 765.794 798 768V772C798 774.206 799.794 776 802 776V790C802 792.206 803.794 794 806 794H830C832.206 794 834 792.206 834 790V776C836.206 776 838 774.206 838 772V768C838 765.794 836.206 764 834 764ZM825 758C826.654 758 828 759.346 828 761C828 764 826.748 764 826 764H821.044C822.066 760.848 823.55 758 825 758ZM808 761C808 759.346 809.346 758 811 758C812.776 758 814.428 761.05 815.396 764H810C809.252 764 808 764 808 761ZM802 768H816V772H802V768ZM806 790V776H816V790H806ZM830 790H820V776H830V790ZM820 772V768.17L820.034 768H834L834.002 772H820Z" fill="#323232"/>
<path d="M725 544V538C725 535.794 723.206 534 721 534H715C715 530.692 712.308 528 709 528C705.692 528 703 530.692 703 534H697C694.794 534 693 535.794 693 538V545.762L694.318 546.24C695.922 546.82 697 548.332 697 550C697 551.668 695.922 553.18 694.318 553.76L693 554.238V562C693 564.206 694.794 566 697 566H704.762L705.24 564.682C705.82 563.078 707.332 562 709 562C710.668 562 712.18 563.078 712.76 564.682L713.238 566H721C723.206 566 725 564.206 725 562V556C728.308 556 731 553.308 731 550C731 546.692 728.308 544 725 544ZM725 552H721L720.994 562H715.904C714.482 559.56 711.86 558 709 558C706.14 558 703.518 559.56 702.096 562H697V556.904C699.44 555.482 701 552.86 701 550C701 547.14 699.44 544.518 697 543.096V538H707V534C707 533.47 707.211 532.961 707.586 532.586C707.961 532.211 708.47 532 709 532C709.53 532 710.039 532.211 710.414 532.586C710.789 532.961 711 533.47 711 534V538H721V548H725C725.53 548 726.039 548.211 726.414 548.586C726.789 548.961 727 549.47 727 550C727 550.53 726.789 551.039 726.414 551.414C726.039 551.789 725.53 552 725 552Z" fill="#323232"/>
<path d="M306.14 560C306.671 560.003 307.198 559.9 307.689 559.698C308.18 559.495 308.626 559.197 309 558.82L314.42 553.4C314.793 553.025 315.002 552.518 315.002 551.99C315.002 551.462 314.793 550.955 314.42 550.58L306.42 542.58C306.045 542.207 305.538 541.998 305.01 541.998C304.482 541.998 303.975 542.207 303.6 542.58L300.4 545.76C298.185 545.169 296.133 544.082 294.4 542.58C292.902 540.845 291.815 538.794 291.22 536.58L294.4 533.38C294.773 533.005 294.982 532.498 294.982 531.97C294.982 531.442 294.773 530.935 294.4 530.56L286.4 522.56C286.025 522.187 285.518 521.978 284.99 521.978C284.462 521.978 283.955 522.187 283.58 522.56L278.18 528C277.803 528.374 277.505 528.82 277.302 529.311C277.1 529.802 276.997 530.329 277 530.86C277.181 538.545 280.252 545.879 285.6 551.4C291.121 556.748 298.455 559.819 306.14 560ZM285 526.82L290.18 532L287.6 534.58C287.356 534.809 287.173 535.095 287.068 535.413C286.963 535.731 286.94 536.071 287 536.4C287.748 539.741 289.33 542.837 291.6 545.4C294.161 547.673 297.258 549.256 300.6 550C300.924 550.068 301.26 550.054 301.578 549.96C301.896 549.865 302.185 549.694 302.42 549.46L305 546.82L310.18 552L306.18 556C299.547 555.829 293.219 553.182 288.44 548.58C283.826 543.799 281.171 537.462 281 530.82L285 526.82ZM313 538H317C317.052 535.622 316.622 533.258 315.735 531.051C314.849 528.843 313.525 526.838 311.843 525.157C310.162 523.475 308.156 522.151 305.949 521.264C303.742 520.378 301.378 519.948 299 520V524C300.856 523.936 302.705 524.254 304.433 524.935C306.16 525.616 307.729 526.645 309.042 527.958C310.355 529.271 311.384 530.84 312.065 532.567C312.746 534.295 313.064 536.144 313 538Z" fill="black"/>
<path d="M299 532C303.2 532 305 533.8 305 538H309C309 531.56 305.44 528 299 528V532Z" fill="black"/>
<path d="M655 183H627C624.794 183 623 184.794 623 187V215C623 217.206 624.794 219 627 219H655C657.206 219 659 217.206 659 215V187C659 184.794 657.206 183 655 183ZM635 199V187H647V199H635ZM647 203V215H635V203H647ZM627 187H631V191H627V187ZM627 195H631V199H627V195ZM627 203H631V207H627V203ZM627 211H631V215H627V211ZM655.004 215H651V211H655.004V215ZM655.002 207H651V203H655.002V207ZM655.002 199H651V195H655.002V199ZM651 191V187H655V191H651Z" fill="black"/>
<path d="M58 954C59.6569 954 61 952.657 61 951C61 949.343 59.6569 948 58 948C56.3431 948 55 949.343 55 951C55 952.657 56.3431 954 58 954Z" fill="black"/>
<path d="M72 954C73.6569 954 75 952.657 75 951C75 949.343 73.6569 948 72 948C70.3431 948 69 949.343 69 951C69 952.657 70.3431 954 72 954Z" fill="black"/>
<path d="M78.74 928.68C78.1378 927.916 77.385 927.284 76.5284 926.823C75.6717 926.362 74.7294 926.082 73.76 926H56.24C55.2633 926.072 54.3128 926.349 53.451 926.815C52.5892 927.28 51.8357 927.923 51.24 928.7C49.9097 930.159 49.1192 932.029 49 934V958C49 958.53 49.2107 959.039 49.5858 959.414C49.9609 959.789 50.4696 960 51 960H55L51 966H55.64L57 964H73L74.36 966H79L75 960H79C79.5304 960 80.0391 959.789 80.4142 959.414C80.7893 959.039 81 958.53 81 958V934C80.9084 932.013 80.1064 930.125 78.74 928.68ZM56.24 930H73.68C74.4798 930.194 75.1871 930.661 75.68 931.32C75.8612 931.536 76.0282 931.763 76.18 932H53.78C53.9244 931.752 54.0918 931.517 54.28 931.3C54.7515 930.641 55.4492 930.178 56.24 930ZM53 938V936H77V942H53V938ZM77 956H53V946H77V956Z" fill="black"/>
<path d="M75 182.828V192H79V182.828C79 181.776 78.572 180.744 77.828 180L73.828 176L79 170.828L83 174.828C83.744 175.572 84.776 176 85.828 176H93V172H85.828L78.414 164.586C78.2284 164.4 78.008 164.253 77.7654 164.152C77.5228 164.051 77.2627 164 77 164C76.7373 164 76.4772 164.051 76.2346 164.152C75.992 164.253 75.7716 164.4 75.586 164.586L69 171.172C68.244 171.928 67.828 172.932 67.828 174C67.828 175.068 68.244 176.072 69 176.828L75 182.828Z" fill="black"/>
<path d="M85 166C87.2091 166 89 164.209 89 162C89 159.791 87.2091 158 85 158C82.7909 158 81 159.791 81 162C81 164.209 82.7909 166 85 166Z" fill="black"/>
<path d="M89 180C84.588 180 81 183.588 81 188C81 192.412 84.588 196 89 196C93.412 196 97 192.412 97 188C97 183.588 93.412 180 89 180ZM89 192C86.794 192 85 190.206 85 188C85 185.794 86.794 184 89 184C91.206 184 93 185.794 93 188C93 190.206 91.206 192 89 192ZM65 196C69.412 196 73 192.412 73 188C73 183.588 69.412 180 65 180C60.588 180 57 183.588 57 188C57 192.412 60.588 196 65 196ZM65 184C67.206 184 69 185.794 69 188C69 190.206 67.206 192 65 192C62.794 192 61 190.206 61 188C61 185.794 62.794 184 65 184Z" fill="black"/>
<path d="M758.75 93.562L761.25 90.438L753.202 84L761.25 77.562L758.75 74.438L748.75 82.438C748.516 82.6254 748.327 82.8631 748.197 83.1335C748.067 83.4038 747.999 83.7 747.999 84C747.999 84.3 748.067 84.5962 748.197 84.8666C748.327 85.137 748.516 85.3747 748.75 85.562L758.75 93.562ZM777.25 74.438L774.75 77.562L782.798 84L774.75 90.438L777.25 93.562L787.25 85.562C787.484 85.3747 787.673 85.137 787.803 84.8666C787.933 84.5962 788.001 84.3 788.001 84C788.001 83.7 787.933 83.4038 787.803 83.1335C787.673 82.8631 787.484 82.6254 787.25 82.438L777.25 74.438ZM773.952 66.432L765.952 102.432L762.046 101.564L770.046 65.564L773.952 66.432Z" fill="black"/>
<path d="M1088 949.32V952C1088 952.53 1088.21 953.039 1088.59 953.414C1088.96 953.789 1089.47 954 1090 954H1106C1106.53 954 1107.04 953.789 1107.41 953.414C1107.79 953.039 1108 952.53 1108 952V949.32C1111.04 947.565 1113.57 945.04 1115.32 942C1117.08 938.959 1118 935.511 1118 932C1118 931.47 1117.79 930.961 1117.41 930.586C1117.04 930.211 1116.53 930 1116 930C1115.96 928.775 1115.61 927.581 1114.98 926.53C1114.35 925.48 1113.46 924.609 1112.4 924C1112.15 922.258 1111.27 920.666 1109.94 919.516C1108.6 918.367 1106.9 917.736 1105.14 917.74C1104.46 917.739 1103.79 917.826 1103.14 918C1101.76 916.686 1099.93 915.952 1098.03 915.952C1096.13 915.952 1094.3 916.686 1092.92 918C1092.27 917.826 1091.6 917.739 1090.92 917.74C1089.15 917.726 1087.44 918.352 1086.1 919.503C1084.76 920.654 1083.88 922.251 1083.62 924C1082.55 924.606 1081.66 925.476 1081.03 926.527C1080.39 927.578 1080.04 928.774 1080 930C1079.47 930 1078.96 930.211 1078.59 930.586C1078.21 930.961 1078 931.47 1078 932C1078 935.511 1078.92 938.959 1080.68 942C1082.43 945.04 1084.96 947.565 1088 949.32ZM1086.22 927.32L1087.88 926.8L1087.56 925C1087.57 924.569 1087.66 924.144 1087.82 923.748C1087.99 923.352 1088.24 922.993 1088.55 922.692C1088.86 922.391 1089.22 922.154 1089.62 921.994C1090.02 921.834 1090.45 921.755 1090.88 921.76C1091.46 921.757 1092.03 921.894 1092.54 922.16L1094.16 923.06L1095.16 921.52C1095.47 921.054 1095.9 920.672 1096.39 920.408C1096.89 920.144 1097.44 920.005 1098 920.005C1098.56 920.005 1099.11 920.144 1099.61 920.408C1100.1 920.672 1100.53 921.054 1100.84 921.52L1101.84 923.06L1103.46 922.16C1103.97 921.894 1104.54 921.757 1105.12 921.76C1105.99 921.749 1106.82 922.078 1107.44 922.677C1108.07 923.275 1108.43 924.095 1108.46 924.96L1108.14 926.66L1109.78 927.22C1110.38 927.409 1110.92 927.775 1111.32 928.271C1111.71 928.766 1111.95 929.368 1112 930H1084C1084.05 929.368 1084.29 928.766 1084.68 928.271C1085.08 927.775 1085.62 927.409 1086.22 927.22V927.32ZM1113.88 934C1113.55 936.618 1112.57 939.114 1111.04 941.263C1109.51 943.413 1107.47 945.15 1105.1 946.32C1104.77 946.488 1104.49 946.745 1104.29 947.063C1104.1 947.381 1104 947.747 1104 948.12V950H1092V948.12C1092 947.747 1091.9 947.381 1091.71 947.063C1091.51 946.745 1091.23 946.488 1090.9 946.32C1088.53 945.15 1086.49 943.413 1084.96 941.263C1083.43 939.114 1082.45 936.618 1082.12 934H1113.88Z" fill="black"/>
<path d="M663 747H631C628.794 747 627 748.794 627 751V773C627 775.206 628.794 777 631 777H639L635.4 781.8L638.6 784.2L644 777H650L655.4 784.2L658.6 781.8L655 777H663C665.206 777 667 775.206 667 773V751C667 748.794 665.206 747 663 747ZM631 773V751H663L663.002 773H631Z" fill="black"/>
<path d="M635 765H643V769H635V765Z" fill="black"/>
<path d="M1328.12 801.36C1328.26 801.865 1328.59 802.296 1329.04 802.56L1332.86 804.78V809.18C1332.86 809.71 1333.07 810.219 1333.45 810.594C1333.82 810.969 1334.33 811.18 1334.86 811.18H1339.26L1341.48 815C1341.65 815.302 1341.91 815.554 1342.21 815.729C1342.51 815.905 1342.85 815.998 1343.2 816C1343.56 816 1343.91 815.903 1344.22 815.72L1348.02 813.52L1351.84 815.72C1352.07 815.853 1352.32 815.94 1352.58 815.976C1352.84 816.012 1353.1 815.996 1353.36 815.929C1353.61 815.862 1353.85 815.745 1354.06 815.586C1354.27 815.427 1354.45 815.228 1354.58 815L1356.78 811.18H1361.18C1361.71 811.18 1362.22 810.969 1362.59 810.594C1362.97 810.219 1363.18 809.71 1363.18 809.18V804.78L1367 802.56C1367.46 802.296 1367.79 801.862 1367.93 801.353C1368.07 800.843 1368 800.299 1367.74 799.84L1365.52 796L1367.74 792.18C1368 791.721 1368.07 791.177 1367.93 790.668C1367.79 790.158 1367.46 789.724 1367 789.46L1363.18 787.26V782.86C1363.18 782.33 1362.97 781.821 1362.59 781.446C1362.22 781.071 1361.71 780.86 1361.18 780.86H1356.78L1354.58 777.04C1354.31 776.584 1353.87 776.253 1353.36 776.12C1353.11 776.052 1352.84 776.034 1352.58 776.069C1352.32 776.103 1352.07 776.188 1351.84 776.32L1348 778.52L1344.2 776.32C1343.74 776.058 1343.2 775.986 1342.69 776.121C1342.18 776.256 1341.75 776.586 1341.48 777.04L1339.26 780.86H1334.86C1334.33 780.86 1333.82 781.071 1333.45 781.446C1333.07 781.821 1332.86 782.33 1332.86 782.86V787.26L1329.06 789.46C1328.83 789.591 1328.63 789.765 1328.47 789.974C1328.31 790.183 1328.19 790.421 1328.12 790.676C1328.05 790.931 1328.03 791.196 1328.07 791.458C1328.1 791.72 1328.19 791.972 1328.32 792.2L1330.52 796L1328.32 799.82C1328.19 800.05 1328.1 800.305 1328.06 800.57C1328.03 800.834 1328.05 801.103 1328.12 801.36ZM1334.56 795.02L1332.78 792L1335.88 790.2C1336.18 790.023 1336.43 789.771 1336.6 789.47C1336.77 789.168 1336.86 788.827 1336.86 788.48V784.86H1340.42C1340.77 784.861 1341.12 784.77 1341.42 784.594C1341.73 784.418 1341.98 784.165 1342.16 783.86L1344 780.78L1347.08 782.56C1347.38 782.736 1347.73 782.828 1348.08 782.828C1348.43 782.828 1348.78 782.736 1349.08 782.56L1352.18 780.78L1354 783.86C1354.18 784.165 1354.43 784.418 1354.74 784.594C1355.04 784.77 1355.39 784.861 1355.74 784.86H1359.28V788.42C1359.28 788.769 1359.38 789.111 1359.55 789.413C1359.73 789.715 1359.98 789.966 1360.28 790.14L1363.36 791.94L1361.58 795.02C1361.4 795.324 1361.31 795.669 1361.31 796.02C1361.31 796.371 1361.4 796.716 1361.58 797.02L1363.36 800.1L1360.28 801.9C1359.98 802.075 1359.73 802.325 1359.55 802.627C1359.38 802.929 1359.28 803.271 1359.28 803.62V807.18H1355.62C1355.27 807.182 1354.93 807.276 1354.63 807.451C1354.33 807.626 1354.07 807.878 1353.9 808.18L1352.12 811.26L1349.02 809.48C1348.72 809.304 1348.37 809.212 1348.02 809.212C1347.67 809.212 1347.32 809.304 1347.02 809.48L1344 811.26L1342.22 808.18C1342.04 807.875 1341.79 807.622 1341.48 807.446C1341.18 807.27 1340.83 807.179 1340.48 807.18H1336.86V803.62C1336.84 803.29 1336.74 802.969 1336.57 802.687C1336.4 802.404 1336.16 802.168 1335.88 802L1332.78 800.2L1334.56 797.12C1334.75 796.804 1334.86 796.441 1334.86 796.07C1334.86 795.699 1334.75 795.336 1334.56 795.02Z" fill="black"/>
<path d="M293 84C281.972 84 273 92.972 273 104C273 115.028 281.972 124 293 124C304.028 124 313 115.028 313 104C313 92.972 304.028 84 293 84ZM308.862 102H303.334C303.087 97.6225 301.863 93.3559 299.75 89.514C302.198 90.6581 304.318 92.4028 305.911 94.5858C307.504 96.7688 308.519 99.3193 308.862 102ZM294.06 88.054C296.13 90.782 298.914 95.614 299.314 102H287.06C287.338 96.808 289.048 91.944 291.962 88.052C292.306 88.032 292.65 88 293 88C293.358 88 293.708 88.032 294.06 88.054ZM286.376 89.454C284.408 93.236 283.272 97.524 283.06 102H277.138C277.484 99.2957 278.513 96.7242 280.13 94.5288C281.746 92.3335 283.896 90.5868 286.376 89.454ZM277.138 106H283.086C283.358 110.758 284.416 114.956 286.198 118.46C283.762 117.312 281.655 115.568 280.072 113.391C278.488 111.213 277.479 108.671 277.138 106ZM291.9 119.946C289.098 116.55 287.444 111.792 287.082 106H299.308C298.892 111.546 297.074 116.392 294.102 119.944C293.738 119.968 293.374 120 293 120C292.628 120 292.266 119.968 291.9 119.946ZM299.922 118.402C301.832 114.814 302.998 110.6 303.304 106H308.86C308.522 108.649 307.528 111.171 305.967 113.337C304.406 115.503 302.328 117.244 299.922 118.402Z" fill="black"/>
<path d="M372.006 252.008C374.217 252.008 376.01 250.215 376.01 248.004C376.01 245.793 374.217 244 372.006 244C369.795 244 368.002 245.793 368.002 248.004C368.002 250.215 369.795 252.008 372.006 252.008Z" fill="black"/>
<path d="M371.75 262.438C370.616 263.344 369.794 264 367.994 264C366.196 264 365.418 263.378 364.242 262.438C362.882 261.352 361.192 260 357.988 260C354.786 260 353.098 261.352 351.74 262.438C350.564 263.378 349.79 264 347.99 264C346.194 264 345.418 263.378 344.244 262.44C342.886 261.352 341.2 260 338 260V264C339.794 264 340.57 264.622 341.744 265.56C343.102 266.648 344.79 268 347.99 268C351.19 268 352.882 266.648 354.24 265.56C355.414 264.62 356.192 264 357.988 264C359.788 264 360.61 264.656 361.744 265.562C363.102 266.648 364.792 268 367.994 268C371.198 268 372.888 266.648 374.248 265.562C375.424 264.622 376.202 264 378 264V260C374.798 260 373.108 261.352 371.75 262.438ZM367.994 274C366.196 274 365.418 273.378 364.242 272.438C362.882 271.352 361.192 270 357.988 270C354.786 270 353.098 271.352 351.74 272.438C350.564 273.378 349.79 274 347.99 274C346.194 274 345.418 273.378 344.244 272.44C342.886 271.352 341.2 270 338 270V274C339.794 274 340.57 274.622 341.744 275.56C343.102 276.648 344.79 278 347.99 278C351.19 278 352.882 276.648 354.24 275.56C355.414 274.62 356.192 274 357.988 274C359.788 274 360.61 274.656 361.744 275.562C363.102 276.648 364.792 278 367.994 278C371.198 278 372.888 276.648 374.248 275.562C375.424 274.622 376.202 274 378 274V270C374.798 270 373.108 271.352 371.75 272.438C370.616 273.344 369.794 274 367.994 274ZM356 246.838L360.208 251.046L356.094 256.186C356.666 256.074 357.286 256 357.988 256C361.192 256 362.882 257.352 364.242 258.438C365.418 259.378 366.196 260 367.994 260C369.794 260 370.616 259.344 371.75 258.438C372.014 258.228 372.298 258.004 372.596 257.786L368.404 253.606L368.414 253.596L357.414 242.596C357.228 242.41 357.008 242.263 356.765 242.162C356.523 242.061 356.263 242.01 356 242.01C355.737 242.01 355.477 242.061 355.235 242.162C354.992 242.263 354.772 242.41 354.586 242.596L346.586 250.596L349.414 253.424L356 246.838Z" fill="black"/>
<path d="M1309.69 549H1293C1290.24 549 1288 546.758 1288 544C1288 541.242 1290.24 539 1293 539H1307C1310.86 539 1314 535.86 1314 532C1314 528.14 1310.86 525 1307 525H1297.28C1296.54 526.44 1295.63 527.783 1294.57 529H1307C1308.65 529 1310 530.346 1310 532C1310 533.654 1308.65 535 1307 535H1293C1288.04 535 1284 539.038 1284 544C1284 548.962 1288.04 553 1293 553H1312.19C1311.2 551.766 1310.37 550.424 1309.69 549ZM1290 513C1286.69 513 1284 515.692 1284 519C1284 525.376 1290 529 1290 529C1290 529 1296 525.374 1296 519C1296 515.692 1293.31 513 1290 513ZM1290 522C1289.61 522 1289.22 521.922 1288.85 521.771C1288.49 521.62 1288.16 521.399 1287.88 521.12C1287.6 520.842 1287.38 520.511 1287.23 520.147C1287.08 519.782 1287 519.392 1287 518.998C1287 518.604 1287.08 518.214 1287.23 517.85C1287.38 517.486 1287.6 517.155 1287.88 516.876C1288.16 516.598 1288.49 516.377 1288.85 516.226C1289.22 516.075 1289.61 515.998 1290 515.998C1290.8 515.998 1291.56 516.315 1292.12 516.878C1292.69 517.441 1293 518.204 1293 519C1293 519.796 1292.69 520.559 1292.12 521.122C1291.56 521.684 1290.8 522 1290 522Z" fill="black"/>
<path d="M1318 537C1314.69 537 1312 539.692 1312 543C1312 549.376 1318 553 1318 553C1318 553 1324 549.374 1324 543C1324 539.692 1321.31 537 1318 537ZM1318 546C1317.61 546 1317.22 545.922 1316.85 545.771C1316.49 545.62 1316.16 545.399 1315.88 545.12C1315.6 544.842 1315.38 544.511 1315.23 544.147C1315.08 543.782 1315 543.392 1315 542.998C1315 542.604 1315.08 542.214 1315.23 541.85C1315.38 541.486 1315.6 541.155 1315.88 540.876C1316.16 540.598 1316.49 540.377 1316.85 540.226C1317.22 540.075 1317.61 539.998 1318 539.998C1318.8 539.998 1319.56 540.315 1320.12 540.878C1320.69 541.441 1321 542.204 1321 543C1321 543.796 1320.69 544.559 1320.12 545.122C1319.56 545.684 1318.8 546 1318 546Z" fill="black"/>
<path d="M582.426 934.246C582.954 932.342 583.05 930.186 582.712 927.834L580.98 915.716C580.912 915.24 580.674 914.804 580.31 914.489C579.946 914.173 579.481 914 579 914H555C554.519 914 554.054 914.173 553.69 914.489C553.326 914.804 553.088 915.24 553.02 915.716L551.29 927.832C550.952 930.186 551.048 932.342 551.574 934.244C553.302 940.512 558.676 945.028 565 945.832V950H561V954H573V950H569V945.832C575.324 945.028 580.698 940.512 582.426 934.246ZM577.266 918L578.406 926H555.592L556.734 918H577.266ZM555.43 933.18C555.166 932.232 555.068 931.162 555.112 930H578.89C578.932 931.162 578.834 932.232 578.572 933.182C577.869 935.713 576.357 937.944 574.268 939.536C572.179 941.128 569.627 941.993 567 942C564.373 941.993 561.821 941.128 559.732 939.536C557.643 937.943 556.132 935.711 555.43 933.18Z" fill="black"/>
<path d="M1062 798V780C1062 777.794 1060.21 776 1058 776H1038C1035.79 776 1034 777.794 1034 780V798C1033.47 798 1032.96 798.211 1032.59 798.586C1032.21 798.961 1032 799.47 1032 800V816H1036V806H1060V816H1064V800C1064 799.47 1063.79 798.961 1063.41 798.586C1063.04 798.211 1062.53 798 1062 798ZM1058 780V798H1054V780H1058ZM1050 780V798H1046V780H1050ZM1038 780H1042V798H1038V780Z" fill="black"/>
<path d="M1280 979.266C1281.31 979.269 1282.61 979.012 1283.83 978.509C1285.04 978.006 1286.14 977.268 1287.07 976.336L1301.34 962.07C1303.21 960.192 1304.26 957.649 1304.26 954.998C1304.26 952.346 1303.21 949.803 1301.34 947.926C1299.45 946.04 1296.93 945 1294.26 945C1291.59 945 1289.08 946.04 1287.2 947.928L1272.93 962.196C1271.06 964.074 1270.01 966.617 1270.01 969.268C1270.01 971.919 1271.06 974.462 1272.93 976.34C1273.85 977.271 1274.96 978.008 1276.17 978.511C1277.38 979.013 1278.68 979.27 1280 979.266ZM1290.02 950.756C1290.58 950.198 1291.24 949.755 1291.97 949.453C1292.7 949.152 1293.48 948.998 1294.26 949C1295.87 949 1297.38 949.626 1298.51 950.756C1299.63 951.882 1300.26 953.408 1300.26 954.999C1300.26 956.589 1299.63 958.115 1298.51 959.242L1292.72 965.026L1284.24 956.54L1290.02 950.756ZM1275.76 965.024L1281.41 959.368L1289.9 967.854L1284.24 973.508C1281.98 975.774 1278.02 975.772 1275.76 973.51C1274.63 972.383 1274 970.858 1274 969.267C1274 967.676 1274.63 966.151 1275.76 965.024Z" fill="black"/>
</svg>
